<?xml version="1.0" standalone="no"?><!DOCTYPE svg PUBLIC "-//W3C//DTD SVG 1.1//EN" "http://www.w3.org/Graphics/SVG/1.1/DTD/svg11.dtd"><svg class="icon" width="32px" height="32.00px" viewBox="0 0 1024 1024" version="1.1" xmlns="http://www.w3.org/2000/svg"><path fill="#ff2b49" d="M516.01716567-1.90176491c-281.20156354 0-509.23476374 227.91504871-509.2347649 509.23476373s227.91504871 509.23476374 509.2347649 509.2347649 509.23476374-227.91504871 509.23476374-509.2347649-228.0332002-509.23476374-509.23476374-509.23476373z m308.02204878 388.24720032L482.34386861 728.04078124c-8.97954557 8.97954557-20.67658582 13.46931836-32.37362488 13.46931835-11.69704025 0-23.39407932-4.4897728-32.37362604-13.46931835L249.93904712 560.50136217c-17.95909114-17.84093965-17.95909114-46.90631128 0-64.74725094 17.95909114-17.95909114 46.90631128-17.95909114 64.74725094 0l135.16579302 135.16579418 309.2035683-309.2035683c17.95909114-17.95909114 46.90631128-17.95909114 64.74725094 0 18.07724379 17.72278816 18.07724379 46.78815978 0.23630413 64.6290983z"  /></svg>