<?xml version="1.0" standalone="no"?><!DOCTYPE svg PUBLIC "-//W3C//DTD SVG 1.1//EN" "http://www.w3.org/Graphics/SVG/1.1/DTD/svg11.dtd"><svg class="icon" width="32px" height="32.00px" viewBox="0 0 1024 1024" version="1.1" xmlns="http://www.w3.org/2000/svg"><path fill="#ff2b49" d="M483.648 193.770667a64 64 0 0 1 83.904 25.6l1.834667 3.413333 74.453333 150.741333 166.378667 24.149334a64 64 0 0 1 38.378666 106.154666l-2.922666 3.029334L725.333333 624.021333l28.416 165.546667a64 64 0 0 1-89.322666 69.205333l-3.498667-1.706666L512 778.858667l-148.906667 78.208a64 64 0 0 1-93.376-63.786667l0.533334-3.712L298.666667 624.021333 178.346667 506.88a64 64 0 0 1 31.722666-108.544l3.712-0.64 166.378667-24.149333 74.453333-150.72a64 64 0 0 1 29.034667-29.034667z m-61.013333 238.250666l-199.658667 28.992 144.469333 140.650667-34.133333 198.741333L512 706.56l178.688 93.845333-34.133333-198.741333 144.469333-140.650667-199.658667-28.992L512 251.157333l-89.386667 180.864z" /></svg>