<?xml version="1.0" standalone="no"?><!DOCTYPE svg PUBLIC "-//W3C//DTD SVG 1.1//EN" "http://www.w3.org/Graphics/SVG/1.1/DTD/svg11.dtd"><svg class="icon" width="64px" height="64.00px" viewBox="0 0 1024 1024" version="1.1" xmlns="http://www.w3.org/2000/svg"><path fill="#515151" d="M172.032 288.768h38.4c14.848 0 26.624 12.288 26.624 27.136S224.768 343.04 210.432 343.04H75.776c-14.848 0-27.136-12.288-26.624-27.136V179.712c0-14.848 12.288-27.136 26.624-27.136s26.624 12.288 26.624 27.136v109.056h10.752c0-5.12 1.536-9.728 3.584-13.824 82.944-138.752 231.936-225.28 396.288-225.28 254.464 0 461.824 207.36 461.824 462.848s-206.336 462.848-461.824 462.848c-232.96 0-428.544-174.08-457.728-403.968-2.048-14.848 8.192-28.672 23.04-30.72 14.848-2.048 28.16 8.704 30.208 23.552 26.112 202.24 198.656 355.84 403.968 355.84 225.28 0 407.552-182.784 407.552-408.576s-182.272-408.576-407.552-408.576c-138.752 0.512-265.728 71.68-340.48 185.856z m287.232 180.736L359.424 363.008c-9.216-9.728-8.704-25.6 1.024-34.816 9.728-9.216 25.088-8.704 34.304 1.024l106.496 113.664 106.496-113.664c9.216-9.728 24.576-10.24 34.304-1.024 9.728 9.216 10.24 25.088 1.024 34.816L542.72 468.992h78.336c13.312 0 24.576 11.264 24.576 24.576 0 13.312-11.264 24.576-24.576 24.576h-90.624v49.152h91.648c13.312 0 24.576 11.264 24.576 24.576 0 13.312-11.264 24.576-24.576 24.576h-91.648v88.064c0 13.312-11.264 24.576-24.576 24.576-13.312 0-24.576-11.264-24.576-24.576v-88.064H377.344c-13.312 0-24.576-11.264-24.576-24.576 0-13.312 11.264-24.576 24.576-24.576H481.28v-49.152H377.344c-13.312 0-24.576-11.264-24.576-24.576 0-13.312 11.264-24.576 24.576-24.576l81.92 0.512z"  /></svg>