<?xml version="1.0" standalone="no"?><!DOCTYPE svg PUBLIC "-//W3C//DTD SVG 1.1//EN" "http://www.w3.org/Graphics/SVG/1.1/DTD/svg11.dtd"><svg class="icon" width="64px" height="57.95px" viewBox="0 0 1131 1024" version="1.1" xmlns="http://www.w3.org/2000/svg"><path fill="#515151" d="M901.12 497.717895h-123.472842c-15.36 0-27.836632-12.746105-27.836632-28.510316 0-15.764211 12.449684-28.564211 27.836632-28.564211h93.130105l-33.468631-99.516631a41.849263 41.849263 0 0 0-39.477895-28.833684h-47.265684c0 157.561263-124.604632 285.291789-278.312421 285.291789H138.266947c-9.593263 0-18.917053-1.239579-27.836631-3.584v128.053895c0 22.635789 17.111579 41.148632 38.80421 42.684631 23.983158-64.350316 84.803368-110.08 156.025263-110.08 71.275789 0 132.122947 45.756632 156.079158 110.214737h160.983579c23.983158-64.458105 84.830316-110.214737 156.079158-110.214737 71.275789 0 132.122947 45.756632 156.079158 110.214737h45.109895c23.066947 0 41.768421-19.186526 41.768421-42.819368v-91.405474c0-11.937684-4.904421-23.363368-13.473684-31.474526l-99.597474-94.046316a126.868211 126.868211 0 0 1-7.194947-7.383579zM750.538105 226.708211h47.265684c53.436632 0 100.998737 34.762105 118.406737 86.554947l37.456842 111.400421c2.263579 6.682947 6.090105 12.719158 11.183158 17.515789l99.597474 94.100211A129.886316 129.886316 0 0 1 1104.842105 630.649263v91.405474c0 70.925474-56.050526 128.404211-125.251368 128.40421H943.696842c-11.641263 82.890105-81.219368 146.593684-165.295158 146.593685-84.075789 0-153.626947-63.703579-165.26821-146.593685h-142.578527C458.913684 933.349053 389.335579 997.052632 305.259789 997.052632c-84.291368 0-153.977263-64.026947-165.349052-147.213474C76.503579 843.506526 26.947368 788.749474 26.947368 722.054737V141.069474C26.947368 78.039579 76.8 26.947368 138.266947 26.947368h500.978527c61.493895 0 111.319579 51.092211 111.319579 114.122106v85.611789z m-640.134737 256.808421c0 15.737263 12.476632 28.510316 27.836632 28.510315h333.985684c107.600842 0 194.829474-89.411368 194.829474-199.733894V141.069474c0-15.737263-12.449684-28.537263-27.836632-28.537263H138.293895c-15.386947 0-27.863579 12.8-27.863579 28.56421V483.435789z m194.829474 427.978105c46.106947 0 83.509895-38.346105 83.509895-85.61179s-37.402947-85.584842-83.509895-85.584842c-46.106947 0-83.482947 38.319158-83.482947 85.584842 0 47.265684 37.376 85.611789 83.482947 85.61179z m473.141895 0c46.133895 0 83.509895-38.346105 83.509895-85.61179s-37.376-85.584842-83.509895-85.584842c-46.106947 0-83.482947 38.319158-83.482948 85.584842 0 47.265684 37.376 85.611789 83.482948 85.61179zM347.001263 240.909474c-15.36 0-27.809684-12.773053-27.809684-28.537263 0-15.737263 12.449684-28.510316 27.809684-28.510316h222.666105c15.36 0 27.836632 12.773053 27.836632 28.510316 0 15.764211-12.476632 28.564211-27.836632 28.56421h-222.666105zM263.545263 355.058526c-15.36 0-27.836632-12.773053-27.836631-28.510315 0-15.764211 12.476632-28.564211 27.836631-28.564211H569.667368c15.36 0 27.836632 12.8 27.836632 28.564211 0 15.737263-12.476632 28.510316-27.836632 28.510315H263.545263z"  /></svg>